<mxfile host="app.diagrams.net" modified="2023-03-28T11:59:33.382Z" agent="Mozilla/5.0 (Windows NT 10.0; Win64; x64) AppleWebKit/537.36 (KHTML, like Gecko) Chrome/111.0.0.0 Safari/537.36 Edg/111.0.1661.51" etag="istmxNxbY4kMjhVcFMyV" version="21.1.0" type="google">
  <diagram name="Page-1" id="ujKn_euazITjqPNyCsQg">
    <mxGraphModel dx="1808" dy="1238" grid="1" gridSize="10" guides="1" tooltips="1" connect="1" arrows="1" fold="1" page="1" pageScale="1" pageWidth="827" pageHeight="1169" math="0" shadow="0">
      <root>
        <mxCell id="0" />
        <mxCell id="1" parent="0" />
        <mxCell id="523Lcc3qQP8Pm2MUSPL2-141" value="obo:BFO_0000176" style="edgeStyle=elbowEdgeStyle;rounded=0;orthogonalLoop=1;jettySize=auto;html=1;exitX=0;exitY=0.1;exitDx=0;exitDy=0;fontSize=12;entryX=1;entryY=0.5;entryDx=0;entryDy=0;" edge="1" parent="1" source="523Lcc3qQP8Pm2MUSPL2-139" target="523Lcc3qQP8Pm2MUSPL2-33">
          <mxGeometry x="0.4649" y="-15" relative="1" as="geometry">
            <mxPoint x="445" y="503" as="sourcePoint" />
            <mxPoint x="285" y="503" as="targetPoint" />
            <Array as="points">
              <mxPoint x="590" y="880" />
            </Array>
            <mxPoint x="-1" as="offset" />
          </mxGeometry>
        </mxCell>
        <mxCell id="523Lcc3qQP8Pm2MUSPL2-2" value="iof:MeasurementProcess" style="rounded=0;whiteSpace=wrap;html=1;snapToPoint=1;points=[[0.1,0],[0.2,0],[0.3,0],[0.4,0],[0.5,0],[0.6,0],[0.7,0],[0.8,0],[0.9,0],[0,0.1],[0,0.3],[0,0.5],[0,0.7],[0,0.9],[0.1,1],[0.2,1],[0.3,1],[0.4,1],[0.5,1],[0.6,1],[0.7,1],[0.8,1],[0.9,1],[1,0.1],[1,0.3],[1,0.5],[1,0.7],[1,0.9]];align=left;" vertex="1" parent="1">
          <mxGeometry x="40" y="734.5" width="140" height="30" as="geometry" />
        </mxCell>
        <mxCell id="523Lcc3qQP8Pm2MUSPL2-3" value="&lt;u&gt;:MyExperiment&lt;br&gt;&lt;/u&gt;" style="rounded=0;whiteSpace=wrap;html=1;snapToPoint=1;points=[[0.1,0],[0.2,0],[0.3,0],[0.4,0],[0.5,0],[0.6,0],[0.7,0],[0.8,0],[0.9,0],[0,0.1],[0,0.3],[0,0.5],[0,0.7],[0,0.9],[0.1,1],[0.2,1],[0.3,1],[0.4,1],[0.5,1],[0.6,1],[0.7,1],[0.8,1],[0.9,1],[1,0.1],[1,0.3],[1,0.5],[1,0.7],[1,0.9]];align=left;fillColor=#d5e8d4;strokeColor=#82b366;" vertex="1" parent="1">
          <mxGeometry x="40" y="764.5" width="140" height="30" as="geometry" />
        </mxCell>
        <mxCell id="523Lcc3qQP8Pm2MUSPL2-10" value="mseo:Regulation" style="rounded=0;whiteSpace=wrap;html=1;snapToPoint=1;points=[[0.1,0],[0.2,0],[0.3,0],[0.4,0],[0.5,0],[0.6,0],[0.7,0],[0.8,0],[0.9,0],[0,0.1],[0,0.3],[0,0.5],[0,0.7],[0,0.9],[0.1,1],[0.2,1],[0.3,1],[0.4,1],[0.5,1],[0.6,1],[0.7,1],[0.8,1],[0.9,1],[1,0.1],[1,0.3],[1,0.5],[1,0.7],[1,0.9]];align=left;" vertex="1" parent="1">
          <mxGeometry x="40" y="320" width="100" height="30" as="geometry" />
        </mxCell>
        <mxCell id="523Lcc3qQP8Pm2MUSPL2-12" value="&lt;u&gt;:Standard&lt;br&gt;&lt;/u&gt;" style="rounded=0;whiteSpace=wrap;html=1;snapToPoint=1;points=[[0.1,0],[0.2,0],[0.3,0],[0.4,0],[0.5,0],[0.6,0],[0.7,0],[0.8,0],[0.9,0],[0,0.1],[0,0.3],[0,0.5],[0,0.7],[0,0.9],[0.1,1],[0.2,1],[0.3,1],[0.4,1],[0.5,1],[0.6,1],[0.7,1],[0.8,1],[0.9,1],[1,0.1],[1,0.3],[1,0.5],[1,0.7],[1,0.9]];align=left;" vertex="1" parent="1">
          <mxGeometry x="40" y="350" width="100" height="30" as="geometry" />
        </mxCell>
        <mxCell id="523Lcc3qQP8Pm2MUSPL2-13" value="iof:designatedBy" style="edgeStyle=orthogonalEdgeStyle;rounded=0;orthogonalLoop=1;jettySize=auto;html=1;fontSize=12;entryX=0;entryY=0.5;entryDx=0;entryDy=0;" edge="1" parent="1" target="523Lcc3qQP8Pm2MUSPL2-15">
          <mxGeometry relative="1" as="geometry">
            <mxPoint x="140" y="365" as="sourcePoint" />
            <mxPoint x="220" y="369.9999999999999" as="targetPoint" />
          </mxGeometry>
        </mxCell>
        <mxCell id="523Lcc3qQP8Pm2MUSPL2-14" value="iof:DesignativeInformationContentEntity" style="rounded=0;whiteSpace=wrap;html=1;snapToPoint=1;points=[[0.1,0],[0.2,0],[0.3,0],[0.4,0],[0.5,0],[0.6,0],[0.7,0],[0.8,0],[0.9,0],[0,0.1],[0,0.3],[0,0.5],[0,0.7],[0,0.9],[0.1,1],[0.2,1],[0.3,1],[0.4,1],[0.5,1],[0.6,1],[0.7,1],[0.8,1],[0.9,1],[1,0.1],[1,0.3],[1,0.5],[1,0.7],[1,0.9]];align=left;" vertex="1" parent="1">
          <mxGeometry x="300" y="320" width="230" height="30" as="geometry" />
        </mxCell>
        <mxCell id="523Lcc3qQP8Pm2MUSPL2-15" value="&lt;u&gt;:StandardIdentifier&lt;br&gt;&lt;/u&gt;" style="rounded=0;whiteSpace=wrap;html=1;snapToPoint=1;points=[[0.1,0],[0.2,0],[0.3,0],[0.4,0],[0.5,0],[0.6,0],[0.7,0],[0.8,0],[0.9,0],[0,0.1],[0,0.3],[0,0.5],[0,0.7],[0,0.9],[0.1,1],[0.2,1],[0.3,1],[0.4,1],[0.5,1],[0.6,1],[0.7,1],[0.8,1],[0.9,1],[1,0.1],[1,0.3],[1,0.5],[1,0.7],[1,0.9]];align=left;fillColor=#fff2cc;strokeColor=#d6b656;" vertex="1" parent="1">
          <mxGeometry x="300" y="350" width="230" height="30" as="geometry" />
        </mxCell>
        <mxCell id="523Lcc3qQP8Pm2MUSPL2-16" value="mseo:in_accordance_with" style="edgeStyle=orthogonalEdgeStyle;rounded=0;orthogonalLoop=1;jettySize=auto;html=1;fontSize=12;entryX=0.5;entryY=1;entryDx=0;entryDy=0;exitX=0.5;exitY=0;exitDx=0;exitDy=0;" edge="1" parent="1" source="523Lcc3qQP8Pm2MUSPL2-2" target="523Lcc3qQP8Pm2MUSPL2-12">
          <mxGeometry relative="1" as="geometry">
            <mxPoint x="90" y="460" as="sourcePoint" />
            <mxPoint x="1190" y="1208" as="targetPoint" />
          </mxGeometry>
        </mxCell>
        <mxCell id="523Lcc3qQP8Pm2MUSPL2-17" value="iof:Agent" style="rounded=0;whiteSpace=wrap;html=1;snapToPoint=1;points=[[0.1,0],[0.2,0],[0.3,0],[0.4,0],[0.5,0],[0.6,0],[0.7,0],[0.8,0],[0.9,0],[0,0.1],[0,0.3],[0,0.5],[0,0.7],[0,0.9],[0.1,1],[0.2,1],[0.3,1],[0.4,1],[0.5,1],[0.6,1],[0.7,1],[0.8,1],[0.9,1],[1,0.1],[1,0.3],[1,0.5],[1,0.7],[1,0.9]];align=left;" vertex="1" parent="1">
          <mxGeometry x="110" y="390" width="100" height="30" as="geometry" />
        </mxCell>
        <mxCell id="523Lcc3qQP8Pm2MUSPL2-18" value="&lt;u&gt;:Operator&lt;br&gt;&lt;/u&gt;" style="rounded=0;whiteSpace=wrap;html=1;snapToPoint=1;points=[[0.1,0],[0.2,0],[0.3,0],[0.4,0],[0.5,0],[0.6,0],[0.7,0],[0.8,0],[0.9,0],[0,0.1],[0,0.3],[0,0.5],[0,0.7],[0,0.9],[0.1,1],[0.2,1],[0.3,1],[0.4,1],[0.5,1],[0.6,1],[0.7,1],[0.8,1],[0.9,1],[1,0.1],[1,0.3],[1,0.5],[1,0.7],[1,0.9]];align=left;" vertex="1" parent="1">
          <mxGeometry x="110" y="420" width="100" height="30" as="geometry" />
        </mxCell>
        <mxCell id="523Lcc3qQP8Pm2MUSPL2-19" value="iof:designatedBy" style="edgeStyle=orthogonalEdgeStyle;rounded=0;orthogonalLoop=1;jettySize=auto;html=1;exitX=1;exitY=0.1;exitDx=0;exitDy=0;fontSize=12;entryX=0;entryY=0.1;entryDx=0;entryDy=0;" edge="1" parent="1" source="523Lcc3qQP8Pm2MUSPL2-18" target="523Lcc3qQP8Pm2MUSPL2-21">
          <mxGeometry relative="1" as="geometry">
            <mxPoint x="290" y="503" as="sourcePoint" />
            <mxPoint x="290" y="439.9999999999999" as="targetPoint" />
          </mxGeometry>
        </mxCell>
        <mxCell id="523Lcc3qQP8Pm2MUSPL2-20" value="iof:DesignativeInformationContentEntity" style="rounded=0;whiteSpace=wrap;html=1;snapToPoint=1;points=[[0.1,0],[0.2,0],[0.3,0],[0.4,0],[0.5,0],[0.6,0],[0.7,0],[0.8,0],[0.9,0],[0,0.1],[0,0.3],[0,0.5],[0,0.7],[0,0.9],[0.1,1],[0.2,1],[0.3,1],[0.4,1],[0.5,1],[0.6,1],[0.7,1],[0.8,1],[0.9,1],[1,0.1],[1,0.3],[1,0.5],[1,0.7],[1,0.9]];align=left;" vertex="1" parent="1">
          <mxGeometry x="370" y="390" width="220" height="30" as="geometry" />
        </mxCell>
        <mxCell id="523Lcc3qQP8Pm2MUSPL2-21" value="&lt;u&gt;:OperatorID&lt;br&gt;&lt;/u&gt;" style="rounded=0;whiteSpace=wrap;html=1;snapToPoint=1;points=[[0.1,0],[0.2,0],[0.3,0],[0.4,0],[0.5,0],[0.6,0],[0.7,0],[0.8,0],[0.9,0],[0,0.1],[0,0.3],[0,0.5],[0,0.7],[0,0.9],[0.1,1],[0.2,1],[0.3,1],[0.4,1],[0.5,1],[0.6,1],[0.7,1],[0.8,1],[0.9,1],[1,0.1],[1,0.3],[1,0.5],[1,0.7],[1,0.9]];align=left;fillColor=#fff2cc;strokeColor=#d6b656;" vertex="1" parent="1">
          <mxGeometry x="370" y="420" width="220" height="30" as="geometry" />
        </mxCell>
        <mxCell id="523Lcc3qQP8Pm2MUSPL2-22" value="obo:BFO_0000166" style="edgeStyle=orthogonalEdgeStyle;rounded=0;orthogonalLoop=1;jettySize=auto;html=1;fontSize=12;entryX=0.5;entryY=1;entryDx=0;entryDy=0;exitX=0.6;exitY=0;exitDx=0;exitDy=0;" edge="1" parent="1" source="523Lcc3qQP8Pm2MUSPL2-2" target="523Lcc3qQP8Pm2MUSPL2-18">
          <mxGeometry x="0.116" y="-8" relative="1" as="geometry">
            <mxPoint x="160" y="640" as="sourcePoint" />
            <mxPoint x="1260" y="1278" as="targetPoint" />
            <mxPoint as="offset" />
          </mxGeometry>
        </mxCell>
        <mxCell id="523Lcc3qQP8Pm2MUSPL2-23" value="iof:PlanSpecification" style="rounded=0;whiteSpace=wrap;html=1;snapToPoint=1;points=[[0.1,0],[0.2,0],[0.3,0],[0.4,0],[0.5,0],[0.6,0],[0.7,0],[0.8,0],[0.9,0],[0,0.1],[0,0.3],[0,0.5],[0,0.7],[0,0.9],[0.1,1],[0.2,1],[0.3,1],[0.4,1],[0.5,1],[0.6,1],[0.7,1],[0.8,1],[0.9,1],[1,0.1],[1,0.3],[1,0.5],[1,0.7],[1,0.9]];align=left;" vertex="1" parent="1">
          <mxGeometry x="175" y="460" width="100" height="30" as="geometry" />
        </mxCell>
        <mxCell id="523Lcc3qQP8Pm2MUSPL2-24" value="&lt;u&gt;:TestPlan&lt;br&gt;&lt;/u&gt;" style="rounded=0;whiteSpace=wrap;html=1;snapToPoint=1;points=[[0.1,0],[0.2,0],[0.3,0],[0.4,0],[0.5,0],[0.6,0],[0.7,0],[0.8,0],[0.9,0],[0,0.1],[0,0.3],[0,0.5],[0,0.7],[0,0.9],[0.1,1],[0.2,1],[0.3,1],[0.4,1],[0.5,1],[0.6,1],[0.7,1],[0.8,1],[0.9,1],[1,0.1],[1,0.3],[1,0.5],[1,0.7],[1,0.9]];align=left;" vertex="1" parent="1">
          <mxGeometry x="175" y="490" width="100" height="30" as="geometry" />
        </mxCell>
        <mxCell id="523Lcc3qQP8Pm2MUSPL2-25" value="iof:designatedBy" style="edgeStyle=orthogonalEdgeStyle;rounded=0;orthogonalLoop=1;jettySize=auto;html=1;exitX=1;exitY=0.1;exitDx=0;exitDy=0;fontSize=12;entryX=0;entryY=0.1;entryDx=0;entryDy=0;" edge="1" parent="1" source="523Lcc3qQP8Pm2MUSPL2-24" target="523Lcc3qQP8Pm2MUSPL2-27">
          <mxGeometry relative="1" as="geometry">
            <mxPoint x="355" y="573" as="sourcePoint" />
            <mxPoint x="355" y="509.9999999999999" as="targetPoint" />
          </mxGeometry>
        </mxCell>
        <mxCell id="523Lcc3qQP8Pm2MUSPL2-26" value="iof:DesignativeInformationContentEntity" style="rounded=0;whiteSpace=wrap;html=1;snapToPoint=1;points=[[0.1,0],[0.2,0],[0.3,0],[0.4,0],[0.5,0],[0.6,0],[0.7,0],[0.8,0],[0.9,0],[0,0.1],[0,0.3],[0,0.5],[0,0.7],[0,0.9],[0.1,1],[0.2,1],[0.3,1],[0.4,1],[0.5,1],[0.6,1],[0.7,1],[0.8,1],[0.9,1],[1,0.1],[1,0.3],[1,0.5],[1,0.7],[1,0.9]];align=left;" vertex="1" parent="1">
          <mxGeometry x="435" y="460" width="215" height="30" as="geometry" />
        </mxCell>
        <mxCell id="523Lcc3qQP8Pm2MUSPL2-27" value="&lt;u&gt;:TestPlanName&lt;br&gt;&lt;/u&gt;" style="rounded=0;whiteSpace=wrap;html=1;snapToPoint=1;points=[[0.1,0],[0.2,0],[0.3,0],[0.4,0],[0.5,0],[0.6,0],[0.7,0],[0.8,0],[0.9,0],[0,0.1],[0,0.3],[0,0.5],[0,0.7],[0,0.9],[0.1,1],[0.2,1],[0.3,1],[0.4,1],[0.5,1],[0.6,1],[0.7,1],[0.8,1],[0.9,1],[1,0.1],[1,0.3],[1,0.5],[1,0.7],[1,0.9]];align=left;fillColor=#fff2cc;strokeColor=#d6b656;" vertex="1" parent="1">
          <mxGeometry x="435" y="490" width="215" height="30" as="geometry" />
        </mxCell>
        <mxCell id="523Lcc3qQP8Pm2MUSPL2-28" value="iof:prescribedBy" style="edgeStyle=orthogonalEdgeStyle;rounded=0;orthogonalLoop=1;jettySize=auto;html=1;fontSize=12;entryX=0.5;entryY=1;entryDx=0;entryDy=0;exitX=0.7;exitY=0;exitDx=0;exitDy=0;" edge="1" parent="1" source="523Lcc3qQP8Pm2MUSPL2-2" target="523Lcc3qQP8Pm2MUSPL2-24">
          <mxGeometry relative="1" as="geometry">
            <mxPoint x="165" y="640" as="sourcePoint" />
            <mxPoint x="1325" y="1348" as="targetPoint" />
          </mxGeometry>
        </mxCell>
        <mxCell id="523Lcc3qQP8Pm2MUSPL2-29" value="obo:BFO_0000008" style="rounded=0;whiteSpace=wrap;html=1;snapToPoint=1;points=[[0.1,0],[0.2,0],[0.3,0],[0.4,0],[0.5,0],[0.6,0],[0.7,0],[0.8,0],[0.9,0],[0,0.1],[0,0.3],[0,0.5],[0,0.7],[0,0.9],[0.1,1],[0.2,1],[0.3,1],[0.4,1],[0.5,1],[0.6,1],[0.7,1],[0.8,1],[0.9,1],[1,0.1],[1,0.3],[1,0.5],[1,0.7],[1,0.9]];align=left;" vertex="1" parent="1">
          <mxGeometry x="240" y="530" width="140" height="30" as="geometry" />
        </mxCell>
        <mxCell id="523Lcc3qQP8Pm2MUSPL2-30" value="&lt;u&gt;:ExperimentTimeInterval&lt;br&gt;&lt;/u&gt;" style="rounded=0;whiteSpace=wrap;html=1;snapToPoint=1;points=[[0.1,0],[0.2,0],[0.3,0],[0.4,0],[0.5,0],[0.6,0],[0.7,0],[0.8,0],[0.9,0],[0,0.1],[0,0.3],[0,0.5],[0,0.7],[0,0.9],[0.1,1],[0.2,1],[0.3,1],[0.4,1],[0.5,1],[0.6,1],[0.7,1],[0.8,1],[0.9,1],[1,0.1],[1,0.3],[1,0.5],[1,0.7],[1,0.9]];align=left;" vertex="1" parent="1">
          <mxGeometry x="240" y="560" width="140" height="30" as="geometry" />
        </mxCell>
        <mxCell id="523Lcc3qQP8Pm2MUSPL2-31" value="obo:BFO_0000199" style="edgeStyle=orthogonalEdgeStyle;rounded=0;orthogonalLoop=1;jettySize=auto;html=1;exitX=0.8;exitY=0;exitDx=0;exitDy=0;entryX=0.5;entryY=1;entryDx=0;entryDy=0;" edge="1" parent="1" source="523Lcc3qQP8Pm2MUSPL2-2" target="523Lcc3qQP8Pm2MUSPL2-30">
          <mxGeometry relative="1" as="geometry" />
        </mxCell>
        <mxCell id="523Lcc3qQP8Pm2MUSPL2-32" value="iof:MeasurementInformationContentEntity" style="rounded=0;whiteSpace=wrap;html=1;snapToPoint=1;points=[[0.1,0],[0.2,0],[0.3,0],[0.4,0],[0.5,0],[0.6,0],[0.7,0],[0.8,0],[0.9,0],[0,0.1],[0,0.3],[0,0.5],[0,0.7],[0,0.9],[0.1,1],[0.2,1],[0.3,1],[0.4,1],[0.5,1],[0.6,1],[0.7,1],[0.8,1],[0.9,1],[1,0.1],[1,0.3],[1,0.5],[1,0.7],[1,0.9]];align=left;" vertex="1" parent="1">
          <mxGeometry x="320" y="795.5" width="230" height="30" as="geometry" />
        </mxCell>
        <mxCell id="523Lcc3qQP8Pm2MUSPL2-33" value="&lt;u&gt;:Measurements&lt;br&gt;&lt;/u&gt;" style="rounded=0;whiteSpace=wrap;html=1;snapToPoint=1;points=[[0.1,0],[0.2,0],[0.3,0],[0.4,0],[0.5,0],[0.6,0],[0.7,0],[0.8,0],[0.9,0],[0,0.1],[0,0.3],[0,0.5],[0,0.7],[0,0.9],[0.1,1],[0.2,1],[0.3,1],[0.4,1],[0.5,1],[0.6,1],[0.7,1],[0.8,1],[0.9,1],[1,0.1],[1,0.3],[1,0.5],[1,0.7],[1,0.9]];align=left;fillColor=#fff2cc;strokeColor=#d6b656;" vertex="1" parent="1">
          <mxGeometry x="320" y="825.5" width="230" height="30" as="geometry" />
        </mxCell>
        <mxCell id="523Lcc3qQP8Pm2MUSPL2-35" value="iof:hasSpecifiedOutput" style="edgeStyle=elbowEdgeStyle;rounded=0;orthogonalLoop=1;jettySize=auto;html=1;entryX=0;entryY=0.5;entryDx=0;entryDy=0;strokeColor=#000000;elbow=vertical;exitX=0.9;exitY=1;exitDx=0;exitDy=0;" edge="1" parent="1" source="523Lcc3qQP8Pm2MUSPL2-3" target="523Lcc3qQP8Pm2MUSPL2-33">
          <mxGeometry relative="1" as="geometry">
            <mxPoint x="180" y="778" as="sourcePoint" />
            <Array as="points">
              <mxPoint x="160" y="841" />
            </Array>
          </mxGeometry>
        </mxCell>
        <mxCell id="523Lcc3qQP8Pm2MUSPL2-38" value="&quot;https://www.beuth.de/de/norm/din-en-iso-527-3/298745448&lt;br&gt;&quot;^^xsd:anyURI&lt;span style=&quot;background-color: rgb(243 , 246 , 250) ; color: rgb(86 , 116 , 130) ; font-family: &amp;#34;consolas&amp;#34; , &amp;#34;liberation mono&amp;#34; , &amp;#34;menlo&amp;#34; , &amp;#34;courier&amp;#34; , monospace ; font-size: 12.48px&quot;&gt; &lt;/span&gt;" style="rounded=0;whiteSpace=wrap;html=1;snapToPoint=1;points=[[0.1,0],[0.2,0],[0.3,0],[0.4,0],[0.5,0],[0.6,0],[0.7,0],[0.8,0],[0.9,0],[0,0.1],[0,0.3],[0,0.5],[0,0.7],[0,0.9],[0.1,1],[0.2,1],[0.3,1],[0.4,1],[0.5,1],[0.6,1],[0.7,1],[0.8,1],[0.9,1],[1,0.1],[1,0.3],[1,0.5],[1,0.7],[1,0.9]];align=left;fillColor=#fff2cc;strokeColor=#d6b656;" vertex="1" parent="1">
          <mxGeometry x="300" y="270" width="395" height="30" as="geometry" />
        </mxCell>
        <mxCell id="523Lcc3qQP8Pm2MUSPL2-39" value="iof-av:directSource" style="rounded=0;orthogonalLoop=1;jettySize=auto;html=1;fontSize=12;entryX=0;entryY=0.5;entryDx=0;entryDy=0;edgeStyle=elbowEdgeStyle;" edge="1" parent="1" target="523Lcc3qQP8Pm2MUSPL2-38">
          <mxGeometry relative="1" as="geometry">
            <mxPoint x="140" y="365" as="sourcePoint" />
            <mxPoint x="400" y="280" as="targetPoint" />
          </mxGeometry>
        </mxCell>
        <mxCell id="523Lcc3qQP8Pm2MUSPL2-40" value="rdf:value" style="edgeStyle=orthogonalEdgeStyle;rounded=0;orthogonalLoop=1;jettySize=auto;html=1;fontSize=12;entryDx=0;entryDy=0;exitX=1;exitY=0.5;exitDx=0;exitDy=0;" edge="1" parent="1" source="523Lcc3qQP8Pm2MUSPL2-15" target="523Lcc3qQP8Pm2MUSPL2-41">
          <mxGeometry x="0.0541" y="27" relative="1" as="geometry">
            <mxPoint x="580" y="380" as="sourcePoint" />
            <mxPoint x="640" y="400" as="targetPoint" />
            <mxPoint as="offset" />
          </mxGeometry>
        </mxCell>
        <mxCell id="523Lcc3qQP8Pm2MUSPL2-41" value="&lt;p&gt;&quot;DIN EN ISO 527-3:2019-02&quot;^^xsd:string&lt;span style=&quot;color: rgb(86 , 116 , 130) ; font-family: &amp;#34;consolas&amp;#34; , &amp;#34;liberation mono&amp;#34; , &amp;#34;menlo&amp;#34; , &amp;#34;courier&amp;#34; , monospace ; font-size: 12.48px ; background-color: rgb(243 , 246 , 250) ; font-size: 12.48px&quot;&gt;&lt;/span&gt;&lt;/p&gt;" style="rounded=0;whiteSpace=wrap;html=1;snapToPoint=1;points=[[0.1,0],[0.2,0],[0.3,0],[0.4,0],[0.5,0],[0.6,0],[0.7,0],[0.8,0],[0.9,0],[0,0.1],[0,0.3],[0,0.5],[0,0.7],[0,0.9],[0.1,1],[0.2,1],[0.3,1],[0.4,1],[0.5,1],[0.6,1],[0.7,1],[0.8,1],[0.9,1],[1,0.1],[1,0.3],[1,0.5],[1,0.7],[1,0.9]];align=left;fillColor=#fff2cc;strokeColor=#d6b656;" vertex="1" parent="1">
          <mxGeometry x="650" y="350" width="190" height="30" as="geometry" />
        </mxCell>
        <mxCell id="523Lcc3qQP8Pm2MUSPL2-42" value="&lt;div&gt;&lt;b style=&quot;background-color: initial;&quot;&gt;:&lt;/b&gt;&lt;span style=&quot;background-color: initial;&quot;&gt;&amp;nbsp;https://purl.matolab.org/mseo/methods/my_method_shortname/&lt;/span&gt;&lt;br&gt;&lt;/div&gt;&lt;div style=&quot;border-color: var(--border-color);&quot;&gt;&lt;span style=&quot;border-color: var(--border-color); font-family: Verdana; background-color: initial;&quot;&gt;mseo:&amp;nbsp;https://purl.matolab.org/mseo/mid/&lt;/span&gt;&lt;/div&gt;&lt;div style=&quot;border-color: var(--border-color);&quot;&gt;&lt;span style=&quot;border-color: var(--border-color); font-family: Verdana; background-color: initial;&quot;&gt;iof: https://spec.industrialontologies.org/ontology/core/Core/&lt;/span&gt;&lt;/div&gt;&lt;div style=&quot;border-color: var(--border-color);&quot;&gt;&lt;span style=&quot;border-color: var(--border-color); font-family: Verdana; background-color: initial;&quot;&gt;&lt;span style=&quot;border-color: var(--border-color); font-family: Helvetica;&quot;&gt;iof-av:&amp;nbsp;&lt;/span&gt;&lt;span style=&quot;border-color: var(--border-color); font-family: Helvetica;&quot;&gt;https://spec.industrialontologies.org/ontology/core/meta/AnnotationVocabulary/&lt;/span&gt;&lt;br&gt;&lt;/span&gt;&lt;/div&gt;&lt;div style=&quot;border-color: var(--border-color);&quot;&gt;&lt;span style=&quot;border-color: var(--border-color); font-family: Verdana; background-color: initial;&quot;&gt;obo: http://purl.obolibrary.org/obo/&lt;/span&gt;&lt;/div&gt;&lt;div style=&quot;border-color: var(--border-color);&quot;&gt;&lt;span style=&quot;border-color: var(--border-color); font-family: Verdana; background-color: initial;&quot;&gt;terms:&amp;nbsp;&lt;/span&gt;&lt;font style=&quot;border-color: var(--border-color);&quot; face=&quot;Verdana&quot;&gt;http://purl.org/dc/terms/&lt;/font&gt;&lt;/div&gt;&lt;div style=&quot;border-color: var(--border-color);&quot;&gt;&lt;span style=&quot;border-color: var(--border-color); background-color: initial; font-family: Verdana;&quot;&gt;qudtk:&amp;nbsp;http://qudt.org/vocab/quantitykind/&lt;/span&gt;&lt;/div&gt;&lt;div style=&quot;border-color: var(--border-color);&quot;&gt;&lt;span style=&quot;border-color: var(--border-color); font-family: Verdana; background-color: initial;&quot;&gt;qudt:&amp;nbsp;http://qudt.org/schema/qudt/&lt;/span&gt;&lt;/div&gt;" style="shape=note;whiteSpace=wrap;html=1;backgroundOutline=1;darkOpacity=0.05;align=left;" vertex="1" parent="1">
          <mxGeometry x="40" y="40" width="510" height="127.57" as="geometry" />
        </mxCell>
        <mxCell id="523Lcc3qQP8Pm2MUSPL2-43" value="&lt;div&gt;&lt;b&gt;dc:creator:&lt;/b&gt;&amp;nbsp;author_full_name&lt;/div&gt;&lt;div&gt;&lt;b&gt;owl:versionInfo:&lt;/b&gt; 0.0.1&lt;/div&gt;&lt;div&gt;&lt;b&gt;dc:title:&lt;/b&gt;&amp;nbsp;my_method_long_name&lt;/div&gt;" style="shape=document;whiteSpace=wrap;html=1;boundedLbl=1;labelBackgroundColor=#ffffff;strokeColor=#000000;fontSize=12;fontColor=#000000;size=0.23333333333333334;align=left;" vertex="1" parent="1">
          <mxGeometry x="40" y="175.99582914572886" width="253" height="85.92964824120604" as="geometry" />
        </mxCell>
        <mxCell id="523Lcc3qQP8Pm2MUSPL2-44" value="iof:PlannedProcess" style="rounded=0;whiteSpace=wrap;html=1;snapToPoint=1;points=[[0.1,0],[0.2,0],[0.3,0],[0.4,0],[0.5,0],[0.6,0],[0.7,0],[0.8,0],[0.9,0],[0,0.1],[0,0.3],[0,0.5],[0,0.7],[0,0.9],[0.1,1],[0.2,1],[0.3,1],[0.4,1],[0.5,1],[0.6,1],[0.7,1],[0.8,1],[0.9,1],[1,0.1],[1,0.3],[1,0.5],[1,0.7],[1,0.9]];align=left;" vertex="1" parent="1">
          <mxGeometry x="360" y="606" width="160" height="30" as="geometry" />
        </mxCell>
        <mxCell id="523Lcc3qQP8Pm2MUSPL2-45" value="&lt;u&gt;:Project&lt;br&gt;&lt;/u&gt;" style="rounded=0;whiteSpace=wrap;html=1;snapToPoint=1;points=[[0.1,0],[0.2,0],[0.3,0],[0.4,0],[0.5,0],[0.6,0],[0.7,0],[0.8,0],[0.9,0],[0,0.1],[0,0.3],[0,0.5],[0,0.7],[0,0.9],[0.1,1],[0.2,1],[0.3,1],[0.4,1],[0.5,1],[0.6,1],[0.7,1],[0.8,1],[0.9,1],[1,0.1],[1,0.3],[1,0.5],[1,0.7],[1,0.9]];align=left;fillColor=#d5e8d4;strokeColor=#82b366;" vertex="1" parent="1">
          <mxGeometry x="360" y="636" width="160" height="30" as="geometry" />
        </mxCell>
        <mxCell id="523Lcc3qQP8Pm2MUSPL2-46" value="iof:designatedBy" style="edgeStyle=orthogonalEdgeStyle;rounded=0;orthogonalLoop=1;jettySize=auto;html=1;fontSize=12;snapToPoint=1;" edge="1" parent="1" source="523Lcc3qQP8Pm2MUSPL2-45" target="523Lcc3qQP8Pm2MUSPL2-48">
          <mxGeometry relative="1" as="geometry">
            <mxPoint x="190.37037037037044" y="752.1503703703702" as="sourcePoint" />
            <mxPoint x="230" y="1981.7800000000002" as="targetPoint" />
          </mxGeometry>
        </mxCell>
        <mxCell id="523Lcc3qQP8Pm2MUSPL2-47" value="iof:Identifier" style="rounded=0;whiteSpace=wrap;html=1;snapToPoint=1;points=[[0.1,0],[0.2,0],[0.3,0],[0.4,0],[0.5,0],[0.6,0],[0.7,0],[0.8,0],[0.9,0],[0,0.1],[0,0.3],[0,0.5],[0,0.7],[0,0.9],[0.1,1],[0.2,1],[0.3,1],[0.4,1],[0.5,1],[0.6,1],[0.7,1],[0.8,1],[0.9,1],[1,0.1],[1,0.3],[1,0.5],[1,0.7],[1,0.9]];align=left;" vertex="1" parent="1">
          <mxGeometry x="645" y="606" width="170" height="30" as="geometry" />
        </mxCell>
        <mxCell id="523Lcc3qQP8Pm2MUSPL2-48" value="&lt;u&gt;:ProjectID&lt;br&gt;&lt;/u&gt;" style="rounded=0;whiteSpace=wrap;html=1;snapToPoint=1;points=[[0.1,0],[0.2,0],[0.3,0],[0.4,0],[0.5,0],[0.6,0],[0.7,0],[0.8,0],[0.9,0],[0,0.1],[0,0.3],[0,0.5],[0,0.7],[0,0.9],[0.1,1],[0.2,1],[0.3,1],[0.4,1],[0.5,1],[0.6,1],[0.7,1],[0.8,1],[0.9,1],[1,0.1],[1,0.3],[1,0.5],[1,0.7],[1,0.9]];align=left;fillColor=#fff2cc;strokeColor=#d6b656;" vertex="1" parent="1">
          <mxGeometry x="645" y="636" width="170" height="30" as="geometry" />
        </mxCell>
        <mxCell id="523Lcc3qQP8Pm2MUSPL2-49" value="obo:BFO_0000117" style="edgeStyle=elbowEdgeStyle;rounded=0;orthogonalLoop=1;jettySize=auto;html=1;exitX=0.4;exitY=1;exitDx=0;exitDy=0;snapToPoint=1;entryX=0.9;entryY=0;entryDx=0;entryDy=0;elbow=vertical;" edge="1" parent="1" source="523Lcc3qQP8Pm2MUSPL2-45" target="523Lcc3qQP8Pm2MUSPL2-2">
          <mxGeometry x="0.0551" relative="1" as="geometry">
            <mxPoint as="offset" />
            <mxPoint x="240" y="-1075" as="sourcePoint" />
            <mxPoint x="240" y="810" as="targetPoint" />
            <Array as="points">
              <mxPoint x="300" y="690" />
            </Array>
          </mxGeometry>
        </mxCell>
        <mxCell id="523Lcc3qQP8Pm2MUSPL2-50" value="has occurrent part" style="text;html=1;strokeColor=none;fillColor=none;align=center;verticalAlign=middle;whiteSpace=wrap;rounded=0;fontSize=10;fontStyle=2;snapToPoint=1;" vertex="1" parent="1">
          <mxGeometry x="210" y="666" width="130" height="30" as="geometry" />
        </mxCell>
        <mxCell id="523Lcc3qQP8Pm2MUSPL2-86" value="occupies temporal region" style="text;html=1;strokeColor=none;fillColor=none;align=center;verticalAlign=middle;whiteSpace=wrap;rounded=0;fontSize=10;fontStyle=2;snapToPoint=1;" vertex="1" parent="1">
          <mxGeometry x="145" y="637" width="130" height="30" as="geometry" />
        </mxCell>
        <mxCell id="523Lcc3qQP8Pm2MUSPL2-87" value="participates at all times" style="text;html=1;strokeColor=none;fillColor=none;align=center;verticalAlign=middle;whiteSpace=wrap;rounded=0;fontSize=10;fontStyle=2;snapToPoint=1;" vertex="1" parent="1">
          <mxGeometry x="90" y="570" width="130" height="30" as="geometry" />
        </mxCell>
        <mxCell id="523Lcc3qQP8Pm2MUSPL2-118" value="iof:isInputOf" style="edgeStyle=orthogonalEdgeStyle;rounded=0;orthogonalLoop=1;jettySize=auto;html=1;fontSize=12;snapToPoint=1;entryX=0.1;entryY=1;entryDx=0;entryDy=0;exitX=0.1;exitY=0;exitDx=0;exitDy=0;" edge="1" parent="1" source="523Lcc3qQP8Pm2MUSPL2-120" target="523Lcc3qQP8Pm2MUSPL2-3">
          <mxGeometry relative="1" as="geometry">
            <mxPoint x="-762" y="1089" as="sourcePoint" />
            <mxPoint x="140" y="920" as="targetPoint" />
          </mxGeometry>
        </mxCell>
        <mxCell id="523Lcc3qQP8Pm2MUSPL2-119" value="mseo:Specimen" style="rounded=0;whiteSpace=wrap;html=1;snapToPoint=1;points=[[0.1,0],[0.2,0],[0.3,0],[0.4,0],[0.5,0],[0.6,0],[0.7,0],[0.8,0],[0.9,0],[0,0.1],[0,0.3],[0,0.5],[0,0.7],[0,0.9],[0.1,1],[0.2,1],[0.3,1],[0.4,1],[0.5,1],[0.6,1],[0.7,1],[0.8,1],[0.9,1],[1,0.1],[1,0.3],[1,0.5],[1,0.7],[1,0.9]];align=left;" vertex="1" parent="1">
          <mxGeometry x="40" y="970" width="140" height="30" as="geometry" />
        </mxCell>
        <mxCell id="523Lcc3qQP8Pm2MUSPL2-120" value="&lt;u&gt;:MySpecimen&lt;br&gt;&lt;/u&gt;" style="rounded=0;whiteSpace=wrap;html=1;snapToPoint=1;points=[[0.1,0],[0.2,0],[0.3,0],[0.4,0],[0.5,0],[0.6,0],[0.7,0],[0.8,0],[0.9,0],[0,0.1],[0,0.3],[0,0.5],[0,0.7],[0,0.9],[0.1,1],[0.2,1],[0.3,1],[0.4,1],[0.5,1],[0.6,1],[0.7,1],[0.8,1],[0.9,1],[1,0.1],[1,0.3],[1,0.5],[1,0.7],[1,0.9]];align=left;" vertex="1" parent="1">
          <mxGeometry x="40" y="1000" width="140" height="30" as="geometry" />
        </mxCell>
        <mxCell id="523Lcc3qQP8Pm2MUSPL2-121" value="iof:DesignativeInformationContentEntity" style="rounded=0;whiteSpace=wrap;html=1;snapToPoint=1;points=[[0.1,0],[0.2,0],[0.3,0],[0.4,0],[0.5,0],[0.6,0],[0.7,0],[0.8,0],[0.9,0],[0,0.1],[0,0.3],[0,0.5],[0,0.7],[0,0.9],[0.1,1],[0.2,1],[0.3,1],[0.4,1],[0.5,1],[0.6,1],[0.7,1],[0.8,1],[0.9,1],[1,0.1],[1,0.3],[1,0.5],[1,0.7],[1,0.9]];align=left;" vertex="1" parent="1">
          <mxGeometry x="180" y="1070" width="220" height="30" as="geometry" />
        </mxCell>
        <mxCell id="523Lcc3qQP8Pm2MUSPL2-122" value="&lt;u&gt;:SpecimenID&lt;br&gt;&lt;/u&gt;" style="rounded=0;whiteSpace=wrap;html=1;snapToPoint=1;points=[[0.1,0],[0.2,0],[0.3,0],[0.4,0],[0.5,0],[0.6,0],[0.7,0],[0.8,0],[0.9,0],[0,0.1],[0,0.3],[0,0.5],[0,0.7],[0,0.9],[0.1,1],[0.2,1],[0.3,1],[0.4,1],[0.5,1],[0.6,1],[0.7,1],[0.8,1],[0.9,1],[1,0.1],[1,0.3],[1,0.5],[1,0.7],[1,0.9]];align=left;fillColor=#fff2cc;strokeColor=#d6b656;" vertex="1" parent="1">
          <mxGeometry x="180" y="1100" width="220" height="30" as="geometry" />
        </mxCell>
        <mxCell id="523Lcc3qQP8Pm2MUSPL2-123" value="iof:designatedBy" style="edgeStyle=orthogonalEdgeStyle;rounded=0;orthogonalLoop=1;jettySize=auto;html=1;fontSize=12;exitX=0.5;exitY=1;exitDx=0;exitDy=0;entryX=0;entryY=0.3;entryDx=0;entryDy=0;" edge="1" parent="1" target="523Lcc3qQP8Pm2MUSPL2-122" source="523Lcc3qQP8Pm2MUSPL2-120">
          <mxGeometry relative="1" as="geometry">
            <mxPoint y="932.5" as="sourcePoint" />
            <mxPoint x="260" y="940" as="targetPoint" />
          </mxGeometry>
        </mxCell>
        <mxCell id="523Lcc3qQP8Pm2MUSPL2-124" value="bfo:BFO_0000056" style="edgeStyle=elbowEdgeStyle;rounded=0;orthogonalLoop=1;jettySize=auto;html=1;fontColor=#000000;snapToPoint=1;entryX=0;entryY=0.5;entryDx=0;entryDy=0;" edge="1" parent="1" target="523Lcc3qQP8Pm2MUSPL2-126">
          <mxGeometry x="0.4065" relative="1" as="geometry">
            <mxPoint x="180" y="781" as="sourcePoint" />
            <mxPoint x="515.0000000000005" y="805" as="targetPoint" />
            <mxPoint as="offset" />
            <Array as="points">
              <mxPoint x="530" y="790" />
              <mxPoint x="530" y="860" />
            </Array>
          </mxGeometry>
        </mxCell>
        <mxCell id="523Lcc3qQP8Pm2MUSPL2-125" value="mseo:MeasurementDevice" style="rounded=0;whiteSpace=wrap;html=1;snapToPoint=1;points=[[0.1,0],[0.2,0],[0.3,0],[0.4,0],[0.5,0],[0.6,0],[0.7,0],[0.8,0],[0.9,0],[0,0.1],[0,0.3],[0,0.5],[0,0.7],[0,0.9],[0.1,1],[0.2,1],[0.3,1],[0.4,1],[0.5,1],[0.6,1],[0.7,1],[0.8,1],[0.9,1],[1,0.1],[1,0.3],[1,0.5],[1,0.7],[1,0.9]];" vertex="1" parent="1">
          <mxGeometry x="1090" y="735.5" width="170" height="30" as="geometry" />
        </mxCell>
        <mxCell id="523Lcc3qQP8Pm2MUSPL2-126" value="&lt;u&gt;:LoadCell&lt;/u&gt;" style="rounded=0;whiteSpace=wrap;html=1;snapToPoint=1;points=[[0.1,0],[0.2,0],[0.3,0],[0.4,0],[0.5,0],[0.6,0],[0.7,0],[0.8,0],[0.9,0],[0,0.1],[0,0.3],[0,0.5],[0,0.7],[0,0.9],[0.1,1],[0.2,1],[0.3,1],[0.4,1],[0.5,1],[0.6,1],[0.7,1],[0.8,1],[0.9,1],[1,0.1],[1,0.3],[1,0.5],[1,0.7],[1,0.9]];" vertex="1" parent="1">
          <mxGeometry x="1090" y="765.5" width="170" height="30" as="geometry" />
        </mxCell>
        <mxCell id="523Lcc3qQP8Pm2MUSPL2-127" value="iof:designatedBy" style="edgeStyle=orthogonalEdgeStyle;rounded=0;orthogonalLoop=1;jettySize=auto;html=1;fontSize=12;fontColor=#000000;snapToPoint=1;entryX=0;entryY=0.5;entryDx=0;entryDy=0;" edge="1" parent="1" source="523Lcc3qQP8Pm2MUSPL2-126" target="523Lcc3qQP8Pm2MUSPL2-131">
          <mxGeometry x="235" y="-269.5" as="geometry">
            <mxPoint x="806" y="880.5" as="sourcePoint" />
            <mxPoint x="791.0000000000005" y="920.4999999999998" as="targetPoint" />
            <mxPoint y="-15" as="offset" />
          </mxGeometry>
        </mxCell>
        <mxCell id="523Lcc3qQP8Pm2MUSPL2-128" value="has_participant_at_some_time" style="text;html=1;strokeColor=none;fillColor=none;align=center;verticalAlign=middle;whiteSpace=wrap;rounded=0;fontSize=10;fontStyle=2;snapToPoint=1;" vertex="1" parent="1">
          <mxGeometry x="760" y="749.5" width="60" height="30" as="geometry" />
        </mxCell>
        <mxCell id="523Lcc3qQP8Pm2MUSPL2-129" value="" style="group;snapToPoint=1;" vertex="1" connectable="0" parent="1">
          <mxGeometry x="1390" y="734.5" width="220" height="60" as="geometry" />
        </mxCell>
        <mxCell id="523Lcc3qQP8Pm2MUSPL2-130" value="iof:DesignativeInformationContentEntity" style="rounded=0;whiteSpace=wrap;html=1;snapToPoint=1;points=[[0.1,0],[0.2,0],[0.3,0],[0.4,0],[0.5,0],[0.6,0],[0.7,0],[0.8,0],[0.9,0],[0,0.1],[0,0.3],[0,0.5],[0,0.7],[0,0.9],[0.1,1],[0.2,1],[0.3,1],[0.4,1],[0.5,1],[0.6,1],[0.7,1],[0.8,1],[0.9,1],[1,0.1],[1,0.3],[1,0.5],[1,0.7],[1,0.9]];align=left;" vertex="1" parent="523Lcc3qQP8Pm2MUSPL2-129">
          <mxGeometry width="220" height="30" as="geometry" />
        </mxCell>
        <mxCell id="523Lcc3qQP8Pm2MUSPL2-131" value="&lt;u&gt;:LoadCellID&lt;br&gt;&lt;/u&gt;" style="rounded=0;whiteSpace=wrap;html=1;snapToPoint=1;points=[[0.1,0],[0.2,0],[0.3,0],[0.4,0],[0.5,0],[0.6,0],[0.7,0],[0.8,0],[0.9,0],[0,0.1],[0,0.3],[0,0.5],[0,0.7],[0,0.9],[0.1,1],[0.2,1],[0.3,1],[0.4,1],[0.5,1],[0.6,1],[0.7,1],[0.8,1],[0.9,1],[1,0.1],[1,0.3],[1,0.5],[1,0.7],[1,0.9]];align=left;fillColor=#fff2cc;strokeColor=#d6b656;" vertex="1" parent="523Lcc3qQP8Pm2MUSPL2-129">
          <mxGeometry y="30" width="220" height="30" as="geometry" />
        </mxCell>
        <mxCell id="523Lcc3qQP8Pm2MUSPL2-132" value="" style="group;snapToPoint=1;" vertex="1" connectable="0" parent="1">
          <mxGeometry x="1390" y="818.5" width="220" height="60" as="geometry" />
        </mxCell>
        <mxCell id="523Lcc3qQP8Pm2MUSPL2-133" value="iof:MeasurementCapaility" style="rounded=0;whiteSpace=wrap;html=1;snapToPoint=1;points=[[0.1,0],[0.2,0],[0.3,0],[0.4,0],[0.5,0],[0.6,0],[0.7,0],[0.8,0],[0.9,0],[0,0.1],[0,0.3],[0,0.5],[0,0.7],[0,0.9],[0.1,1],[0.2,1],[0.3,1],[0.4,1],[0.5,1],[0.6,1],[0.7,1],[0.8,1],[0.9,1],[1,0.1],[1,0.3],[1,0.5],[1,0.7],[1,0.9]];align=left;" vertex="1" parent="523Lcc3qQP8Pm2MUSPL2-132">
          <mxGeometry width="220" height="30" as="geometry" />
        </mxCell>
        <mxCell id="523Lcc3qQP8Pm2MUSPL2-134" value="&lt;u&gt;:ForceMeasurementCapability&lt;br&gt;&lt;/u&gt;" style="rounded=0;whiteSpace=wrap;html=1;snapToPoint=1;points=[[0.1,0],[0.2,0],[0.3,0],[0.4,0],[0.5,0],[0.6,0],[0.7,0],[0.8,0],[0.9,0],[0,0.1],[0,0.3],[0,0.5],[0,0.7],[0,0.9],[0.1,1],[0.2,1],[0.3,1],[0.4,1],[0.5,1],[0.6,1],[0.7,1],[0.8,1],[0.9,1],[1,0.1],[1,0.3],[1,0.5],[1,0.7],[1,0.9]];align=left;" vertex="1" parent="523Lcc3qQP8Pm2MUSPL2-132">
          <mxGeometry y="30" width="220" height="30" as="geometry" />
        </mxCell>
        <mxCell id="523Lcc3qQP8Pm2MUSPL2-135" value="iof:hasCapability" style="edgeStyle=elbowEdgeStyle;rounded=0;orthogonalLoop=1;jettySize=auto;html=1;fontSize=12;fontColor=#000000;snapToPoint=1;exitX=1;exitY=0.5;exitDx=0;exitDy=0;entryX=0;entryY=0.5;entryDx=0;entryDy=0;" edge="1" target="523Lcc3qQP8Pm2MUSPL2-134" parent="1" source="523Lcc3qQP8Pm2MUSPL2-126">
          <mxGeometry x="150" y="-65.5" as="geometry">
            <mxPoint x="632" y="910.5" as="sourcePoint" />
            <mxPoint x="650" y="924.5" as="targetPoint" />
            <mxPoint x="-1" y="17" as="offset" />
          </mxGeometry>
        </mxCell>
        <mxCell id="523Lcc3qQP8Pm2MUSPL2-138" value="iof:ValueExpression" style="rounded=0;whiteSpace=wrap;html=1;snapToPoint=1;points=[[0.1,0],[0.2,0],[0.3,0],[0.4,0],[0.5,0],[0.6,0],[0.7,0],[0.8,0],[0.9,0],[0,0.1],[0,0.3],[0,0.5],[0,0.7],[0,0.9],[0.1,1],[0.2,1],[0.3,1],[0.4,1],[0.5,1],[0.6,1],[0.7,1],[0.8,1],[0.9,1],[1,0.1],[1,0.3],[1,0.5],[1,0.7],[1,0.9]];align=left;" vertex="1" parent="1">
          <mxGeometry x="700" y="890" width="220" height="30" as="geometry" />
        </mxCell>
        <mxCell id="523Lcc3qQP8Pm2MUSPL2-139" value="&lt;u&gt;:ForceMeasurement&lt;br&gt;&lt;/u&gt;" style="rounded=0;whiteSpace=wrap;html=1;snapToPoint=1;points=[[0.1,0],[0.2,0],[0.3,0],[0.4,0],[0.5,0],[0.6,0],[0.7,0],[0.8,0],[0.9,0],[0,0.1],[0,0.3],[0,0.5],[0,0.7],[0,0.9],[0.1,1],[0.2,1],[0.3,1],[0.4,1],[0.5,1],[0.6,1],[0.7,1],[0.8,1],[0.9,1],[1,0.1],[1,0.3],[1,0.5],[1,0.7],[1,0.9]];align=left;fillColor=#fff2cc;strokeColor=#d6b656;" vertex="1" parent="1">
          <mxGeometry x="700" y="920" width="220" height="30" as="geometry" />
        </mxCell>
        <mxCell id="523Lcc3qQP8Pm2MUSPL2-140" value="iof:measuredByAtSomeTime" style="edgeStyle=orthogonalEdgeStyle;rounded=0;orthogonalLoop=1;jettySize=auto;html=1;fontSize=12;snapToPoint=1;entryX=0;entryY=0.7;entryDx=0;entryDy=0;exitX=1;exitY=0.5;exitDx=0;exitDy=0;" edge="1" parent="1" source="523Lcc3qQP8Pm2MUSPL2-139" target="523Lcc3qQP8Pm2MUSPL2-126">
          <mxGeometry relative="1" as="geometry">
            <mxPoint x="690" y="790" as="sourcePoint" />
            <mxPoint x="564" y="790" as="targetPoint" />
          </mxGeometry>
        </mxCell>
        <mxCell id="523Lcc3qQP8Pm2MUSPL2-142" value="continuante part at some time" style="text;html=1;strokeColor=none;fillColor=none;align=center;verticalAlign=middle;whiteSpace=wrap;rounded=0;fontSize=10;fontStyle=2;snapToPoint=1;" vertex="1" parent="1">
          <mxGeometry x="530" y="810" width="200" height="30" as="geometry" />
        </mxCell>
        <mxCell id="523Lcc3qQP8Pm2MUSPL2-149" value="iof:hasMeasuredValueAtSomeTime" style="edgeStyle=orthogonalEdgeStyle;rounded=0;orthogonalLoop=1;jettySize=auto;html=1;fontSize=12;snapToPoint=1;exitX=1;exitY=0.5;exitDx=0;exitDy=0;entryX=0;entryY=0.5;entryDx=0;entryDy=0;" edge="1" parent="1" source="523Lcc3qQP8Pm2MUSPL2-151" target="523Lcc3qQP8Pm2MUSPL2-139">
          <mxGeometry relative="1" as="geometry">
            <mxPoint x="340" y="990" as="sourcePoint" />
            <mxPoint x="660" y="990" as="targetPoint" />
          </mxGeometry>
        </mxCell>
        <mxCell id="523Lcc3qQP8Pm2MUSPL2-150" value="iof:ProcessCharacteristic" style="rounded=0;whiteSpace=wrap;html=1;snapToPoint=1;points=[[0.1,0],[0.2,0],[0.3,0],[0.4,0],[0.5,0],[0.6,0],[0.7,0],[0.8,0],[0.9,0],[0,0.1],[0,0.3],[0,0.5],[0,0.7],[0,0.9],[0.1,1],[0.2,1],[0.3,1],[0.4,1],[0.5,1],[0.6,1],[0.7,1],[0.8,1],[0.9,1],[1,0.1],[1,0.3],[1,0.5],[1,0.7],[1,0.9]];align=left;" vertex="1" parent="1">
          <mxGeometry x="194" y="890" width="220" height="30" as="geometry" />
        </mxCell>
        <mxCell id="523Lcc3qQP8Pm2MUSPL2-151" value="&lt;u&gt;:ForceApplied&lt;br&gt;&lt;/u&gt;" style="rounded=0;whiteSpace=wrap;html=1;snapToPoint=1;points=[[0.1,0],[0.2,0],[0.3,0],[0.4,0],[0.5,0],[0.6,0],[0.7,0],[0.8,0],[0.9,0],[0,0.1],[0,0.3],[0,0.5],[0,0.7],[0,0.9],[0.1,1],[0.2,1],[0.3,1],[0.4,1],[0.5,1],[0.6,1],[0.7,1],[0.8,1],[0.9,1],[1,0.1],[1,0.3],[1,0.5],[1,0.7],[1,0.9]];align=left;fillColor=#dae8fc;strokeColor=#6c8ebf;" vertex="1" parent="1">
          <mxGeometry x="194" y="920" width="220" height="30" as="geometry" />
        </mxCell>
        <mxCell id="523Lcc3qQP8Pm2MUSPL2-152" value="iof:hasProcessCharacteristic" style="edgeStyle=elbowEdgeStyle;rounded=0;orthogonalLoop=1;jettySize=auto;html=1;entryX=0;entryY=0.5;entryDx=0;entryDy=0;strokeColor=#000000;elbow=vertical;exitX=0.7;exitY=1;exitDx=0;exitDy=0;" edge="1" parent="1" source="523Lcc3qQP8Pm2MUSPL2-3" target="523Lcc3qQP8Pm2MUSPL2-151">
          <mxGeometry x="-0.1298" relative="1" as="geometry">
            <mxPoint x="176" y="805" as="sourcePoint" />
            <mxPoint x="330" y="851" as="targetPoint" />
            <Array as="points">
              <mxPoint x="170" y="935" />
            </Array>
            <mxPoint as="offset" />
          </mxGeometry>
        </mxCell>
        <mxCell id="523Lcc3qQP8Pm2MUSPL2-154" value="mseo:MeasurementDevice" style="rounded=0;whiteSpace=wrap;html=1;snapToPoint=1;points=[[0.1,0],[0.2,0],[0.3,0],[0.4,0],[0.5,0],[0.6,0],[0.7,0],[0.8,0],[0.9,0],[0,0.1],[0,0.3],[0,0.5],[0,0.7],[0,0.9],[0.1,1],[0.2,1],[0.3,1],[0.4,1],[0.5,1],[0.6,1],[0.7,1],[0.8,1],[0.9,1],[1,0.1],[1,0.3],[1,0.5],[1,0.7],[1,0.9]];" vertex="1" parent="1">
          <mxGeometry x="1090" y="971" width="170" height="30" as="geometry" />
        </mxCell>
        <mxCell id="523Lcc3qQP8Pm2MUSPL2-155" value="&lt;u&gt;:Caliper&lt;/u&gt;" style="rounded=0;whiteSpace=wrap;html=1;snapToPoint=1;points=[[0.1,0],[0.2,0],[0.3,0],[0.4,0],[0.5,0],[0.6,0],[0.7,0],[0.8,0],[0.9,0],[0,0.1],[0,0.3],[0,0.5],[0,0.7],[0,0.9],[0.1,1],[0.2,1],[0.3,1],[0.4,1],[0.5,1],[0.6,1],[0.7,1],[0.8,1],[0.9,1],[1,0.1],[1,0.3],[1,0.5],[1,0.7],[1,0.9]];" vertex="1" parent="1">
          <mxGeometry x="1090" y="1001" width="170" height="30" as="geometry" />
        </mxCell>
        <mxCell id="523Lcc3qQP8Pm2MUSPL2-156" value="iof:designatedBy" style="edgeStyle=orthogonalEdgeStyle;rounded=0;orthogonalLoop=1;jettySize=auto;html=1;fontSize=12;fontColor=#000000;snapToPoint=1;entryX=0;entryY=0.5;entryDx=0;entryDy=0;" edge="1" source="523Lcc3qQP8Pm2MUSPL2-155" target="523Lcc3qQP8Pm2MUSPL2-159" parent="1">
          <mxGeometry x="235" y="-34" as="geometry">
            <mxPoint x="806" y="1116" as="sourcePoint" />
            <mxPoint x="791.0000000000005" y="1155.9999999999998" as="targetPoint" />
            <mxPoint y="-15" as="offset" />
          </mxGeometry>
        </mxCell>
        <mxCell id="523Lcc3qQP8Pm2MUSPL2-157" value="" style="group;snapToPoint=1;" vertex="1" connectable="0" parent="1">
          <mxGeometry x="1390" y="970" width="220" height="60" as="geometry" />
        </mxCell>
        <mxCell id="523Lcc3qQP8Pm2MUSPL2-158" value="iof:DesignativeInformationContentEntity" style="rounded=0;whiteSpace=wrap;html=1;snapToPoint=1;points=[[0.1,0],[0.2,0],[0.3,0],[0.4,0],[0.5,0],[0.6,0],[0.7,0],[0.8,0],[0.9,0],[0,0.1],[0,0.3],[0,0.5],[0,0.7],[0,0.9],[0.1,1],[0.2,1],[0.3,1],[0.4,1],[0.5,1],[0.6,1],[0.7,1],[0.8,1],[0.9,1],[1,0.1],[1,0.3],[1,0.5],[1,0.7],[1,0.9]];align=left;" vertex="1" parent="523Lcc3qQP8Pm2MUSPL2-157">
          <mxGeometry width="220" height="30" as="geometry" />
        </mxCell>
        <mxCell id="523Lcc3qQP8Pm2MUSPL2-159" value="&lt;u&gt;:CaliperID&lt;br&gt;&lt;/u&gt;" style="rounded=0;whiteSpace=wrap;html=1;snapToPoint=1;points=[[0.1,0],[0.2,0],[0.3,0],[0.4,0],[0.5,0],[0.6,0],[0.7,0],[0.8,0],[0.9,0],[0,0.1],[0,0.3],[0,0.5],[0,0.7],[0,0.9],[0.1,1],[0.2,1],[0.3,1],[0.4,1],[0.5,1],[0.6,1],[0.7,1],[0.8,1],[0.9,1],[1,0.1],[1,0.3],[1,0.5],[1,0.7],[1,0.9]];align=left;fillColor=#fff2cc;strokeColor=#d6b656;" vertex="1" parent="523Lcc3qQP8Pm2MUSPL2-157">
          <mxGeometry y="30" width="220" height="30" as="geometry" />
        </mxCell>
        <mxCell id="523Lcc3qQP8Pm2MUSPL2-160" value="" style="group;snapToPoint=1;" vertex="1" connectable="0" parent="1">
          <mxGeometry x="1390" y="1054" width="220" height="60" as="geometry" />
        </mxCell>
        <mxCell id="523Lcc3qQP8Pm2MUSPL2-161" value="iof:MeasurementCapaility" style="rounded=0;whiteSpace=wrap;html=1;snapToPoint=1;points=[[0.1,0],[0.2,0],[0.3,0],[0.4,0],[0.5,0],[0.6,0],[0.7,0],[0.8,0],[0.9,0],[0,0.1],[0,0.3],[0,0.5],[0,0.7],[0,0.9],[0.1,1],[0.2,1],[0.3,1],[0.4,1],[0.5,1],[0.6,1],[0.7,1],[0.8,1],[0.9,1],[1,0.1],[1,0.3],[1,0.5],[1,0.7],[1,0.9]];align=left;" vertex="1" parent="523Lcc3qQP8Pm2MUSPL2-160">
          <mxGeometry width="220" height="30" as="geometry" />
        </mxCell>
        <mxCell id="523Lcc3qQP8Pm2MUSPL2-162" value="&lt;u&gt;:LenghtMeasurementCapability&lt;br&gt;&lt;/u&gt;" style="rounded=0;whiteSpace=wrap;html=1;snapToPoint=1;points=[[0.1,0],[0.2,0],[0.3,0],[0.4,0],[0.5,0],[0.6,0],[0.7,0],[0.8,0],[0.9,0],[0,0.1],[0,0.3],[0,0.5],[0,0.7],[0,0.9],[0.1,1],[0.2,1],[0.3,1],[0.4,1],[0.5,1],[0.6,1],[0.7,1],[0.8,1],[0.9,1],[1,0.1],[1,0.3],[1,0.5],[1,0.7],[1,0.9]];align=left;" vertex="1" parent="523Lcc3qQP8Pm2MUSPL2-160">
          <mxGeometry y="30" width="220" height="30" as="geometry" />
        </mxCell>
        <mxCell id="523Lcc3qQP8Pm2MUSPL2-163" value="iof:hasCapability" style="edgeStyle=elbowEdgeStyle;rounded=0;orthogonalLoop=1;jettySize=auto;html=1;fontSize=12;fontColor=#000000;snapToPoint=1;exitX=1;exitY=0.5;exitDx=0;exitDy=0;entryX=0;entryY=0.5;entryDx=0;entryDy=0;" edge="1" source="523Lcc3qQP8Pm2MUSPL2-155" target="523Lcc3qQP8Pm2MUSPL2-162" parent="1">
          <mxGeometry x="150" y="170" as="geometry">
            <mxPoint x="632" y="1146" as="sourcePoint" />
            <mxPoint x="650" y="1160" as="targetPoint" />
            <mxPoint x="-1" y="17" as="offset" />
          </mxGeometry>
        </mxCell>
        <mxCell id="523Lcc3qQP8Pm2MUSPL2-164" value="iof:hasQuality" style="rounded=0;orthogonalLoop=1;jettySize=auto;html=1;fontSize=12;edgeStyle=elbowEdgeStyle;entryX=0;entryY=0.5;entryDx=0;entryDy=0;snapToPoint=1;exitX=1;exitY=0.5;exitDx=0;exitDy=0;elbow=vertical;" edge="1" parent="1" target="523Lcc3qQP8Pm2MUSPL2-165" source="523Lcc3qQP8Pm2MUSPL2-120">
          <mxGeometry x="0.0082" y="16" relative="1" as="geometry">
            <mxPoint x="300" y="1000" as="sourcePoint" />
            <mxPoint x="359" y="1265" as="targetPoint" />
            <mxPoint as="offset" />
          </mxGeometry>
        </mxCell>
        <mxCell id="523Lcc3qQP8Pm2MUSPL2-224" value="" style="edgeStyle=orthogonalEdgeStyle;rounded=0;orthogonalLoop=1;jettySize=auto;html=1;" edge="1" parent="1" source="523Lcc3qQP8Pm2MUSPL2-165" target="523Lcc3qQP8Pm2MUSPL2-151">
          <mxGeometry relative="1" as="geometry" />
        </mxCell>
        <mxCell id="523Lcc3qQP8Pm2MUSPL2-165" value="&lt;u&gt;:MySpecimenLength&lt;/u&gt;" style="rounded=0;whiteSpace=wrap;html=1;snapToPoint=1;points=[[0.1,0],[0.2,0],[0.3,0],[0.4,0],[0.5,0],[0.6,0],[0.7,0],[0.8,0],[0.9,0],[0,0.1],[0,0.3],[0,0.5],[0,0.7],[0,0.9],[0.1,1],[0.2,1],[0.3,1],[0.4,1],[0.5,1],[0.6,1],[0.7,1],[0.8,1],[0.9,1],[1,0.1],[1,0.3],[1,0.5],[1,0.7],[1,0.9]];" vertex="1" parent="1">
          <mxGeometry x="300" y="1001" width="170" height="30" as="geometry" />
        </mxCell>
        <mxCell id="523Lcc3qQP8Pm2MUSPL2-166" value="bfo:BFO_0000019" style="rounded=0;whiteSpace=wrap;html=1;snapToPoint=1;points=[[0.1,0],[0.2,0],[0.3,0],[0.4,0],[0.5,0],[0.6,0],[0.7,0],[0.8,0],[0.9,0],[0,0.1],[0,0.3],[0,0.5],[0,0.7],[0,0.9],[0.1,1],[0.2,1],[0.3,1],[0.4,1],[0.5,1],[0.6,1],[0.7,1],[0.8,1],[0.9,1],[1,0.1],[1,0.3],[1,0.5],[1,0.7],[1,0.9]];" vertex="1" parent="1">
          <mxGeometry x="300" y="971" width="170" height="30" as="geometry" />
        </mxCell>
        <mxCell id="523Lcc3qQP8Pm2MUSPL2-167" value="iof:ValueExpression" style="rounded=0;whiteSpace=wrap;html=1;snapToPoint=1;points=[[0.1,0],[0.2,0],[0.3,0],[0.4,0],[0.5,0],[0.6,0],[0.7,0],[0.8,0],[0.9,0],[0,0.1],[0,0.3],[0,0.5],[0,0.7],[0,0.9],[0.1,1],[0.2,1],[0.3,1],[0.4,1],[0.5,1],[0.6,1],[0.7,1],[0.8,1],[0.9,1],[1,0.1],[1,0.3],[1,0.5],[1,0.7],[1,0.9]];align=left;" vertex="1" parent="1">
          <mxGeometry x="700" y="971" width="220" height="30" as="geometry" />
        </mxCell>
        <mxCell id="523Lcc3qQP8Pm2MUSPL2-168" value="&lt;u&gt;:LengthMeasurement&lt;br&gt;&lt;/u&gt;" style="rounded=0;whiteSpace=wrap;html=1;snapToPoint=1;points=[[0.1,0],[0.2,0],[0.3,0],[0.4,0],[0.5,0],[0.6,0],[0.7,0],[0.8,0],[0.9,0],[0,0.1],[0,0.3],[0,0.5],[0,0.7],[0,0.9],[0.1,1],[0.2,1],[0.3,1],[0.4,1],[0.5,1],[0.6,1],[0.7,1],[0.8,1],[0.9,1],[1,0.1],[1,0.3],[1,0.5],[1,0.7],[1,0.9]];align=left;fillColor=#fff2cc;strokeColor=#d6b656;" vertex="1" parent="1">
          <mxGeometry x="700" y="1001" width="220" height="30" as="geometry" />
        </mxCell>
        <mxCell id="523Lcc3qQP8Pm2MUSPL2-169" value="obo:BFO_0000176" style="edgeStyle=elbowEdgeStyle;rounded=0;orthogonalLoop=1;jettySize=auto;html=1;exitX=0;exitY=0.1;exitDx=0;exitDy=0;fontSize=12;" edge="1" source="523Lcc3qQP8Pm2MUSPL2-168" parent="1" target="523Lcc3qQP8Pm2MUSPL2-33">
          <mxGeometry x="-0.2078" relative="1" as="geometry">
            <mxPoint x="445" y="584" as="sourcePoint" />
            <mxPoint x="550" y="922" as="targetPoint" />
            <Array as="points">
              <mxPoint x="590" y="961" />
            </Array>
            <mxPoint as="offset" />
          </mxGeometry>
        </mxCell>
        <mxCell id="523Lcc3qQP8Pm2MUSPL2-170" value="iof:hasMeasuredValueAtSomeTime" style="edgeStyle=orthogonalEdgeStyle;rounded=0;orthogonalLoop=1;jettySize=auto;html=1;fontSize=12;snapToPoint=1;entryX=0;entryY=0.5;entryDx=0;entryDy=0;exitX=1;exitY=0.5;exitDx=0;exitDy=0;" edge="1" target="523Lcc3qQP8Pm2MUSPL2-168" parent="1" source="523Lcc3qQP8Pm2MUSPL2-165">
          <mxGeometry relative="1" as="geometry">
            <mxPoint x="500" y="1060" as="sourcePoint" />
            <mxPoint x="660" y="1071" as="targetPoint" />
          </mxGeometry>
        </mxCell>
        <mxCell id="523Lcc3qQP8Pm2MUSPL2-171" value="iof:measuredByAtSomeTime" style="edgeStyle=orthogonalEdgeStyle;rounded=0;orthogonalLoop=1;jettySize=auto;html=1;fontSize=12;snapToPoint=1;exitX=1;exitY=0.7;exitDx=0;exitDy=0;entryX=0;entryY=0.7;entryDx=0;entryDy=0;" edge="1" parent="1" source="523Lcc3qQP8Pm2MUSPL2-168" target="523Lcc3qQP8Pm2MUSPL2-155">
          <mxGeometry relative="1" as="geometry">
            <mxPoint x="930" y="945" as="sourcePoint" />
            <mxPoint x="940" y="1080" as="targetPoint" />
          </mxGeometry>
        </mxCell>
      </root>
    </mxGraphModel>
  </diagram>
</mxfile>
